<svg width="92" height="570" viewBox="0 0 92 570" fill="none" xmlns="http://www.w3.org/2000/svg">
<path fill-rule="evenodd" clip-rule="evenodd" d="M-249.427 13.9404C-304.95 37.7455 -349.497 85.6795 -371.301 142.018C-391.456 194.093 -370.26 249.934 -362.147 305.182C-354.468 357.466 -354.453 411.316 -325.282 455.38C-292.968 504.19 -248.417 548.154 -191.701 562.641C-133.983 577.384 -68.6285 567.571 -19.8324 533.401C25.5169 501.645 41.1553 443.339 55.1581 389.777C66.1295 347.81 46.7825 306.084 50.8841 262.901C56.5982 202.741 110.782 143.149 83.7151 89.1185C57.0586 35.9072 -15.5569 27.4851 -73.6119 14.3842C-132.214 1.15988 -194.213 -9.7327 -249.427 13.9404Z" fill="#C4C4C4"/>
<path fill-rule="evenodd" clip-rule="evenodd" d="M-249.427 13.9404C-304.95 37.7455 -349.497 85.6795 -371.301 142.018C-391.456 194.093 -370.26 249.934 -362.147 305.182C-354.468 357.466 -354.453 411.316 -325.282 455.38C-292.968 504.19 -248.417 548.154 -191.701 562.641C-133.983 577.384 -68.6285 567.571 -19.8324 533.401C25.5169 501.645 41.1553 443.339 55.1581 389.777C66.1295 347.81 46.7825 306.084 50.8841 262.901C56.5982 202.741 110.782 143.149 83.7151 89.1185C57.0586 35.9072 -15.5569 27.4851 -73.6119 14.3842C-132.214 1.15988 -194.213 -9.7327 -249.427 13.9404Z" fill="url(#paint0_linear_25_3010)" fill-opacity="0.96"/>
<defs>
<linearGradient id="paint0_linear_25_3010" x1="105.088" y1="137.267" x2="-61.8243" y2="327.242" gradientUnits="userSpaceOnUse">
<stop stop-color="#734192"/>
<stop offset="1" stop-color="#9B309D"/>
</linearGradient>
</defs>
</svg>
