<svg width="56" height="321" viewBox="0 0 56 321" fill="none" xmlns="http://www.w3.org/2000/svg">
<path fill-rule="evenodd" clip-rule="evenodd" d="M96.7676 0.680516C121.952 -0.857815 144.87 21.568 165.362 42.5618C183.503 61.1469 193.486 87.6567 206.172 112.763C221.641 143.378 249.722 169.881 247.594 205.31C245.463 240.785 217.333 260.611 196.038 281.447C176.544 300.52 155.422 316.922 130.626 319.753C105.725 322.595 78.2189 318.535 58.143 297.188C39.0604 276.897 39.158 240.903 29.0962 211.796C19.3081 183.482 -0.993081 159.421 0.0516999 129.144C1.1439 97.4936 18.0974 72.5455 34.6607 50.5452C52.0804 27.4073 71.3248 2.2346 96.7676 0.680516Z" fill="#C4C4C4"/>
<path fill-rule="evenodd" clip-rule="evenodd" d="M96.7676 0.680516C121.952 -0.857815 144.87 21.568 165.362 42.5618C183.503 61.1469 193.486 87.6567 206.172 112.763C221.641 143.378 249.722 169.881 247.594 205.31C245.463 240.785 217.333 260.611 196.038 281.447C176.544 300.52 155.422 316.922 130.626 319.753C105.725 322.595 78.2189 318.535 58.143 297.188C39.0604 276.897 39.158 240.903 29.0962 211.796C19.3081 183.482 -0.993081 159.421 0.0516999 129.144C1.1439 97.4936 18.0974 72.5455 34.6607 50.5452C52.0804 27.4073 71.3248 2.2346 96.7676 0.680516Z" fill="url(#paint0_linear_25_3012)" fill-opacity="0.96"/>
<defs>
<linearGradient id="paint0_linear_25_3012" x1="2.1772" y1="155.314" x2="90.1595" y2="156.631" gradientUnits="userSpaceOnUse">
<stop stop-color="#734192"/>
<stop offset="1" stop-color="#9B309D"/>
</linearGradient>
</defs>
</svg>
