<svg width="120" height="121" viewBox="0 0 120 121" fill="none" xmlns="http://www.w3.org/2000/svg">
<path d="M120 60.5425C120 76.4555 113.679 91.7167 102.426 102.969C91.1742 114.221 75.913 120.542 60 120.542C44.087 120.542 28.8258 114.221 17.5736 102.969C6.32141 91.7167 0 76.4555 0 60.5425C0 44.6295 6.32141 29.3683 17.5736 18.1161C28.8258 6.86389 44.087 0.54248 60 0.54248C75.913 0.54248 91.1742 6.86389 102.426 18.1161C113.679 29.3683 120 44.6295 120 60.5425ZM50.925 38.74C50.3643 38.3407 49.7045 38.1035 49.0179 38.0544C48.3313 38.0052 47.6445 38.1459 47.0326 38.4612C46.4207 38.7764 45.9073 39.254 45.5488 39.8416C45.1903 40.4292 45.0004 41.1041 45 41.7925V79.2925C45.0004 79.9808 45.1903 80.6558 45.5488 81.2433C45.9073 81.8309 46.4207 82.3085 47.0326 82.6238C47.6445 82.939 48.3313 83.0798 49.0179 83.0306C49.7045 82.9814 50.3643 82.7442 50.925 82.345L77.175 63.595C77.6611 63.2481 78.0574 62.7901 78.3307 62.2592C78.6041 61.7282 78.7468 61.1397 78.7468 60.5425C78.7468 59.9453 78.6041 59.3567 78.3307 58.8258C78.0574 58.2948 77.6611 57.8369 77.175 57.49L50.925 38.74Z" fill="white"/>
</svg>
