<svg width="561" height="213" viewBox="0 0 561 213" fill="none" xmlns="http://www.w3.org/2000/svg">
<path fill-rule="evenodd" clip-rule="evenodd" d="M210.963 -334.264C260.427 -378.434 316.611 -422.609 382.9 -424.281C449.798 -425.969 510.715 -387.118 561.104 -343.098C608.118 -302.025 628.11 -242.728 655.134 -186.452C687.162 -119.754 742.636 -57.918 733.296 15.4877C723.364 93.5452 677.974 177.119 605.096 206.815C533.3 236.069 504.087 145 428.087 122C375.506 108.559 299.286 101.998 248.087 84.0001C170.27 56.6458 36.5288 102.031 6.17042 25.342C-23.543 -49.7177 74.5841 -114.477 114.541 -184.639C144.64 -237.491 165.595 -293.75 210.963 -334.264Z" fill="#C7199D"/>
</svg>
