<svg width="612" height="747" viewBox="0 0 612 747" fill="none" xmlns="http://www.w3.org/2000/svg">
<path opacity="0.8" fill-rule="evenodd" clip-rule="evenodd" d="M270.5 714.5C213 734.5 142.5 758.567 75.4999 739C11.2636 720.24 -21.5001 675.5 -66.5001 620.5C-106.032 572.183 -101.11 529.203 -109.718 467.371C-119.919 394.088 -153.933 318.298 -122.688 251.221C-89.463 179.893 -83.0179 97.2683 -28.0002 41.0002C15.9998 -3.9998 118.808 -14.6528 184.5 26.4998C230.492 55.3117 302.065 134.053 350 159.5C471.5 224 599.462 135 611 305.5C616.451 386.043 507.5 540.5 437 608.5C379.555 663.908 333.134 692.714 270.5 714.5Z" fill="#C7199D"/>
</svg>
