<svg width="128" height="64" viewBox="0 0 128 64" fill="none" xmlns="http://www.w3.org/2000/svg">
    <path d="M0 28.0517H6.37527V0H0V28.0517Z" fill="#1C2661" />
    <path
        d="M10.2802 28.0517H16.2158V17.1427C16.2158 14.4711 17.7107 12.9127 19.9531 12.9127C22.1954 12.9127 23.6903 14.4711 23.6903 17.1427V28.0517H29.6259V16.0295C29.6259 10.6864 26.2844 7.34688 21.4919 7.34688C19.7332 7.34688 18.2383 7.92572 17.1831 8.46004C16.5676 8.77172 16.04 9.17246 15.5563 9.5732L14.677 7.56951H10.2802V28.0517Z"
        fill="#1C2661" />
    <path
        d="M45.6442 28.0517H50.0409V15.5843C50.0409 10.6864 46.5235 7.12424 41.6871 7.12424C36.3671 7.12424 33.5971 9.97394 32.8937 14.0259L38.8293 14.4711C38.9172 14.1149 39.0931 13.8032 39.3129 13.4915C39.7086 13.0017 40.3681 12.4674 41.4673 12.4674C43.0062 12.4674 44.1053 13.5806 44.1053 15.5843C34.8722 15.5843 32.0143 18.434 32.0143 22.4859C32.0143 25.8699 34.4325 28.2743 38.8293 28.2743C40.5879 28.2743 42.0389 27.74 43.0941 27.1612C43.7096 26.8495 44.2812 26.4488 44.7648 26.048L45.6442 28.0517ZM44.1053 20.0369C44.1053 22.3078 42.6104 23.8217 40.3681 23.8217C38.8293 23.8217 37.9499 22.9312 37.9499 21.818C37.9499 20.2596 39.0051 19.1464 44.1053 19.1464V20.0369Z"
        fill="#1C2661" />
    <path
        d="M53.0975 28.7196C53.5371 30.0109 54.1966 31.1686 55.032 32.1927C56.439 33.9292 58.8132 35.6212 62.5504 35.6212C68.6619 35.6212 72.6629 31.6138 72.6629 26.2706V7.56951H68.2662L67.3869 9.5732C66.9032 9.17246 66.4196 8.77172 65.848 8.46004C64.8367 7.92572 63.4298 7.34688 61.6711 7.34688C56.5709 7.34688 52.438 11.6214 52.438 17.1427C52.438 22.664 56.5709 26.9385 61.6711 26.9385C63.4298 26.9385 64.6609 26.5378 65.4963 26.048C65.9799 25.7809 66.4196 25.4692 66.7273 25.1575V26.2706C66.7273 28.5415 65.0126 30.278 62.5504 30.278C61.1875 30.278 60.3081 29.7882 59.7805 29.2985C59.4727 28.9868 59.2089 28.6751 59.0331 28.2743L53.0975 28.7196ZM58.3735 17.1427C58.3735 14.6492 60.0883 12.9127 62.5504 12.9127C65.0126 12.9127 66.7273 14.6492 66.7273 17.1427C66.7273 19.6362 65.0126 21.3727 62.5504 21.3727C60.0883 21.3727 58.3735 19.6362 58.3735 17.1427Z"
        fill="#1C2661" />
    <path
        d="M88.8959 28.0517H93.2927V15.5843C93.2927 10.6864 89.7753 7.12424 84.9389 7.12424C79.6188 7.12424 76.8489 9.97394 76.1454 14.0259L82.081 14.4711C82.1689 14.1149 82.3448 13.8032 82.5646 13.4915C82.9604 13.0017 83.6199 12.4674 84.719 12.4674C86.2579 12.4674 87.3571 13.5806 87.3571 15.5843C78.1239 15.5843 75.2661 18.434 75.2661 22.4859C75.2661 25.8699 77.6843 28.2743 82.081 28.2743C83.8397 28.2743 85.2906 27.74 86.3458 27.1612C86.9614 26.8495 87.533 26.4488 88.0166 26.048L88.8959 28.0517ZM87.3571 20.0369C87.3571 22.3078 85.8622 23.8217 83.6199 23.8217C82.081 23.8217 81.2017 22.9312 81.2017 21.818C81.2017 20.2596 82.2569 19.1464 87.3571 19.1464V20.0369Z"
        fill="#1C2661" />
    <path
        d="M97.8984 20.7048C97.8984 25.6473 100.536 28.2743 105.153 28.2743C105.944 28.2743 106.648 28.1853 107.219 28.0517C107.527 28.0072 107.791 27.9181 108.011 27.8291V22.4859L107.571 22.6195C107.263 22.664 106.956 22.7085 106.472 22.7085C104.933 22.7085 103.834 21.5954 103.834 19.8143V13.1353H108.011V7.56951H103.834V2.67159H98.7777V5.56582C98.7777 7.2133 97.9863 8.01477 96.3595 8.01477H94.8207V13.1353H97.8984V20.7048Z"
        fill="#1C2661" />
    <path
        d="M123.603 28.0517H128V15.5843C128 10.6864 124.483 7.12424 119.646 7.12424C114.326 7.12424 111.556 9.97394 110.853 14.0259L116.788 14.4711C116.876 14.1149 117.052 13.8032 117.272 13.4915C117.668 13.0017 118.327 12.4674 119.426 12.4674C120.965 12.4674 122.064 13.5806 122.064 15.5843C112.831 15.5843 109.973 18.434 109.973 22.4859C109.973 25.8699 112.392 28.2743 116.788 28.2743C118.547 28.2743 119.998 27.74 121.053 27.1612C121.669 26.8495 122.24 26.4488 122.724 26.048L123.603 28.0517ZM122.064 20.0369C122.064 22.3078 120.57 23.8217 118.327 23.8217C116.788 23.8217 115.909 22.9312 115.909 21.818C115.909 20.2596 116.964 19.1464 122.064 19.1464V20.0369Z"
        fill="#1C2661" />
    <path
        d="M21.3828 35.6514L21.2362 41.9148H20.1224C20.1615 40.7473 20.0931 39.7776 19.9172 39.0058C19.7413 38.234 19.3896 37.6601 18.862 37.2841C18.3539 36.8883 17.5918 36.7003 16.5757 36.7201L14.0842 36.7498L13.1169 52.8981C13.0974 53.4324 13.0681 53.8974 13.029 54.2932C12.9899 54.6692 12.9508 54.9859 12.9117 55.2431C13.3221 55.2233 13.7227 55.2035 14.1135 55.1838C14.5239 55.164 14.9342 55.1442 15.3446 55.1244L15.286 56.4305H8.51501L8.57364 55.4509C9.21849 55.4113 9.67771 55.2332 9.95128 54.9166C10.2444 54.6 10.4398 54.1745 10.5375 53.6402C10.6352 53.0861 10.7036 52.4726 10.7427 51.7997L11.6514 36.7498L8.63226 36.7795C7.40117 36.7795 6.51206 37.195 5.96491 38.0262C5.41776 38.8574 5.09533 40.1536 4.99762 41.9148H3.9131L4.41139 35.6514H21.3828Z"
        fill="#1C2661" />
    <path
        d="M28.2985 41.2618C29.002 41.2618 29.6664 41.3706 30.2917 41.5883C30.917 41.806 31.4251 42.1622 31.8159 42.657C32.2067 43.1517 32.4021 43.8245 32.4021 44.6755C32.4021 45.4869 32.1285 46.1894 31.5814 46.7831C31.0342 47.3768 30.321 47.8715 29.4416 48.2673C28.5623 48.6433 27.6243 48.95 26.6277 49.1875C25.6311 49.425 24.6736 49.5932 23.7552 49.6921C23.7552 53.4126 24.869 55.2728 27.0967 55.2728C27.9565 55.2728 28.8066 54.9859 29.6468 54.412C30.5066 53.8381 31.259 52.9277 31.9038 51.681L32.8711 52.245C32.0504 53.8084 31.1319 54.9562 30.1158 55.6884C29.0997 56.4008 27.9272 56.757 26.5984 56.757C24.742 56.757 23.3742 56.1732 22.4948 55.0056C21.6155 53.8183 21.1758 52.2648 21.1758 50.3452C21.1758 49.1974 21.3223 48.0793 21.6155 46.9909C21.9086 45.9024 22.3482 44.9328 22.9345 44.0818C23.5207 43.2111 24.2633 42.5283 25.1622 42.0336C26.061 41.5191 27.1065 41.2618 28.2985 41.2618ZM27.8881 42.2711C26.9892 42.2711 26.2467 42.5778 25.6605 43.1913C25.0938 43.8047 24.6541 44.5963 24.3414 45.566C24.0483 46.5357 23.8627 47.5549 23.7845 48.6235C24.8202 48.485 25.807 48.2376 26.745 47.8814C27.683 47.5252 28.4548 47.07 29.0606 46.5159C29.6664 45.942 29.9693 45.2791 29.9693 44.5271C29.9693 43.8938 29.7934 43.3595 29.4416 42.9241C29.1094 42.4887 28.5916 42.2711 27.8881 42.2711Z"
        fill="#1C2661" />
    <path
        d="M55.4868 56.757C54.5684 56.757 53.9431 56.5097 53.6109 56.0149C53.2982 55.5202 53.1419 54.8176 53.1419 53.9073C53.1419 53.1751 53.2298 52.2747 53.4057 51.206C53.5816 50.1176 53.7574 48.9896 53.9333 47.822C54.1092 46.6347 54.1971 45.5165 54.1971 44.4677C54.1971 44.2302 54.158 43.973 54.0799 43.6959C54.0017 43.4188 53.8649 43.1814 53.6695 42.9835C53.4741 42.7658 53.181 42.657 52.7901 42.657C52.243 42.657 51.7056 42.9142 51.178 43.4287C50.6504 43.9433 50.1619 44.6359 49.7124 45.5066C49.263 46.3774 48.8624 47.3471 48.5107 48.4157C48.1785 49.4646 47.9147 50.553 47.7192 51.681C47.5238 52.7892 47.4261 53.848 47.4261 54.8572C47.4261 55.1541 47.4261 55.4311 47.4261 55.6884C47.4457 55.9259 47.4652 56.1732 47.4848 56.4305H45.0226C45.003 56.292 44.9933 56.1732 44.9933 56.0743C44.9933 55.9555 44.9933 55.817 44.9933 55.6587C44.9933 54.9067 45.0421 54.0162 45.1398 52.9871C45.2571 51.958 45.3841 50.8993 45.5209 49.8109C45.6772 48.7225 45.8042 47.6934 45.9019 46.7237C46.0192 45.754 46.068 44.9624 46.0485 44.349C46.0289 44.0125 45.9312 43.6464 45.7554 43.2506C45.5795 42.8549 45.2082 42.657 44.6415 42.657C44.0944 42.657 43.557 42.9142 43.0294 43.4287C42.5213 43.9433 42.0426 44.6359 41.5931 45.5066C41.1437 46.3774 40.7431 47.3471 40.3914 48.4157C40.0396 49.4646 39.766 50.553 39.5706 51.681C39.3752 52.7892 39.2775 53.848 39.2775 54.8572C39.2775 55.1541 39.2775 55.4311 39.2775 55.6884C39.2971 55.9259 39.3166 56.1732 39.3361 56.4305H36.874C36.8544 56.292 36.8447 56.1732 36.8447 56.0743C36.8447 55.9555 36.8447 55.817 36.8447 55.6587C36.8447 55.3223 36.8544 54.9364 36.874 54.501C36.913 54.0458 36.9717 53.4522 37.0498 52.7199C37.1475 51.9679 37.2648 50.9686 37.4016 49.7218C37.5384 48.5542 37.6458 47.6439 37.724 46.9909C37.8022 46.3378 37.8608 45.8431 37.8999 45.5066C37.9389 45.1504 37.9585 44.8833 37.9585 44.7052C37.978 44.5073 37.9878 44.2995 37.9878 44.0818C37.9878 43.7256 37.9389 43.4188 37.8412 43.1616C37.7435 42.8845 37.5286 42.746 37.1964 42.746C36.8837 42.746 36.5222 42.9637 36.1119 43.3991C35.7015 43.8344 35.3498 44.5765 35.0566 45.6254L34.2359 45.4473C34.2945 45.0911 34.4118 44.6854 34.5877 44.2302C34.7831 43.7553 35.0371 43.2902 35.3498 42.8351C35.6624 42.3799 36.0435 42.0039 36.4929 41.7071C36.9424 41.4102 37.4602 41.2618 38.0464 41.2618C38.6913 41.2618 39.17 41.43 39.4827 41.7664C39.7953 42.0831 40.0005 42.5085 40.0982 43.0429C40.2155 43.5574 40.2546 44.1214 40.2155 44.7349C40.1959 45.289 40.1373 45.853 40.0396 46.4269C39.9419 46.981 39.854 47.4658 39.7758 47.8814H39.8637C40.4891 46.0805 41.1046 44.7052 41.7104 43.7553C42.3357 42.8054 42.9415 42.1523 43.5277 41.7961C44.1335 41.4399 44.7002 41.2618 45.2278 41.2618C46.0094 41.2618 46.6249 41.4498 47.0744 41.8258C47.5434 42.182 47.8756 42.6174 48.071 43.1319C48.2664 43.6464 48.3641 44.1511 48.3641 44.6458C48.3641 45.1999 48.325 45.6749 48.2469 46.0707C48.1687 46.4664 48.0417 47.0403 47.8658 47.7923H47.9537C48.5986 45.9915 49.2337 44.626 49.859 43.6959C50.5038 42.746 51.1292 42.1028 51.7349 41.7664C52.3407 41.43 52.9074 41.2618 53.435 41.2618C54.2166 41.2618 54.8322 41.4399 55.2816 41.7961C55.7311 42.1523 56.0437 42.6273 56.2196 43.221C56.415 43.7949 56.5127 44.4281 56.5127 45.1208C56.5127 46.2092 56.4346 47.3273 56.2782 48.4751C56.1219 49.6031 55.9558 50.6519 55.7799 51.6216C55.6236 52.5715 55.5454 53.3334 55.5454 53.9073C55.5454 54.2635 55.5845 54.5802 55.6627 54.8572C55.7604 55.1343 55.9851 55.2728 56.3369 55.2728C56.6691 55.2728 57.0403 55.065 57.4507 54.6494C57.8611 54.2141 58.2128 53.4621 58.5059 52.3934L59.3266 52.6012C59.268 52.9376 59.141 53.3433 58.9456 53.8183C58.7502 54.2932 58.4961 54.7583 58.1835 55.2134C57.8708 55.6488 57.4898 56.0149 57.0403 56.3118C56.5909 56.6086 56.073 56.757 55.4868 56.757Z"
        fill="#1C2661" />
    <path
        d="M60.9088 64V63.1095C61.4559 63.1095 61.837 62.9215 62.0519 62.5455C62.2864 62.1695 62.433 61.6648 62.4916 61.0316C62.5698 60.4181 62.6382 59.7255 62.6968 58.9537C62.8336 57.2518 62.9703 55.6092 63.1071 54.0261C63.2635 52.4231 63.4002 50.9686 63.5175 49.6625C63.6543 48.3366 63.7618 47.2086 63.8399 46.2784C63.9181 45.3483 63.9572 44.6953 63.9572 44.3193C63.9572 43.9235 63.9181 43.5673 63.8399 43.2506C63.7813 42.9142 63.5566 42.746 63.1658 42.746C62.8531 42.746 62.4916 42.9637 62.0812 43.3991C61.6904 43.8344 61.3484 44.5765 61.0553 45.6254L60.2053 45.4473C60.2639 45.0911 60.3812 44.6854 60.557 44.2302C60.7524 43.7553 61.0065 43.2902 61.3191 42.8351C61.6318 42.3799 62.0128 42.0039 62.4623 41.7071C62.9117 41.4102 63.4296 41.2618 64.0158 41.2618C64.8951 41.2618 65.4814 41.5784 65.7745 42.2117C66.0872 42.8252 66.2435 43.5475 66.2435 44.3786C66.2435 44.9723 66.1946 45.5759 66.0969 46.1894C66.0188 46.7831 65.9308 47.3075 65.8331 47.7627H65.921C66.4682 45.942 67.0251 44.5666 67.5918 43.6365C68.178 42.7064 68.774 42.0831 69.3798 41.7664C69.9856 41.43 70.5718 41.2618 71.1385 41.2618C72.0374 41.2618 72.78 41.5289 73.3662 42.0633C73.9524 42.5778 74.3823 43.2704 74.6559 44.1412C74.949 45.0119 75.0956 45.9717 75.0956 47.0206C75.0956 48.9401 74.7634 50.6321 74.099 52.0966C73.4541 53.561 72.4868 54.7088 71.1971 55.54C69.927 56.3513 68.3441 56.757 66.4487 56.757C65.9797 56.757 65.5205 56.7273 65.071 56.668C64.9733 58.172 64.8951 59.3297 64.8365 60.141C64.7974 60.9722 64.7584 61.5758 64.7193 61.9518C64.6997 62.3476 64.6607 62.6543 64.602 62.872C64.9147 62.8522 65.2176 62.8324 65.5107 62.8126C65.8233 62.8126 66.136 62.8027 66.4487 62.7829V64H60.9088ZM66.947 55.7477C67.9826 55.7477 68.8522 55.5004 69.5557 55.0056C70.2787 54.4911 70.8552 53.8282 71.2851 53.0168C71.7345 52.1856 72.0569 51.2951 72.2523 50.3452C72.4673 49.3755 72.5748 48.4454 72.5748 47.5549C72.5748 46.6446 72.5162 45.8233 72.3989 45.0911C72.2817 44.3391 72.0765 43.7454 71.7834 43.31C71.4902 42.8746 71.0701 42.657 70.523 42.657C69.9954 42.657 69.4678 42.9439 68.9401 43.5178C68.4125 44.0917 67.924 44.8635 67.4746 45.8332C67.0251 46.7831 66.6245 47.8418 66.2728 49.0094C65.9211 50.177 65.6572 51.3644 65.4814 52.5715C65.4032 53.0069 65.3348 53.4621 65.2762 53.937C65.2371 54.3922 65.198 54.877 65.159 55.3915C65.4716 55.4905 65.7647 55.5795 66.0383 55.6587C66.3314 55.7181 66.6343 55.7477 66.947 55.7477Z"
        fill="#1C2661" />
    <path
        d="M82.6957 34.0188C82.6371 34.5135 82.5492 35.0677 82.4319 35.6811C82.3342 36.2946 82.2365 36.8982 82.1388 37.4919C82.0607 38.0856 81.9923 38.61 81.9336 39.0651C81.8164 39.8963 81.6992 40.8462 81.5819 41.9148C81.4647 42.9637 81.3474 44.062 81.2302 45.2098C81.1129 46.3378 81.0054 47.446 80.9077 48.5345C80.8296 49.6229 80.7612 50.6223 80.7026 51.5326C80.6439 52.4231 80.6146 53.1553 80.6146 53.7292C80.6146 54.1052 80.6537 54.4614 80.7319 54.7979C80.81 55.1145 81.0348 55.2728 81.406 55.2728C81.7382 55.2728 82.0997 55.065 82.4906 54.6494C82.9009 54.2141 83.2527 53.4621 83.5458 52.3934L84.3665 52.6012C84.3079 52.9376 84.1809 53.3433 83.9855 53.8183C83.8096 54.2932 83.5653 54.7583 83.2527 55.2134C82.94 55.6488 82.559 56.0149 82.1095 56.3118C81.6796 56.6086 81.1715 56.757 80.5853 56.757C79.7841 56.757 79.1979 56.5591 78.8266 56.1633C78.4553 55.7477 78.2599 55.1442 78.2404 54.3526C78.2208 53.8578 78.2404 53.1256 78.299 52.1559C78.3772 51.1863 78.4651 50.0879 78.5628 48.861C78.6801 47.6142 78.8071 46.318 78.9439 44.9723C79.0807 43.6069 79.2272 42.281 79.3835 40.9946C79.5399 39.7083 79.6864 38.5407 79.8232 37.4919C79.9209 36.9576 79.9795 36.6112 79.9991 36.4529C80.0382 36.2748 80.0675 36.0868 80.087 35.8889C79.7353 35.9087 79.3835 35.9285 79.0318 35.9483C78.6996 35.9681 78.3576 35.9879 78.0059 36.0077L78.1525 34.8203C79.0123 34.8203 79.6767 34.7807 80.1456 34.7015C80.6342 34.6224 81.0054 34.5234 81.2595 34.4047C81.5135 34.286 81.7187 34.1573 81.875 34.0188H82.6957Z"
        fill="#1C2661" />
    <path
        d="M94.3677 41.2618C94.9539 41.2618 95.5988 41.3113 96.3023 41.4102C97.0058 41.4894 97.6702 41.6081 98.2955 41.7664C98.1001 43.3298 97.8949 44.8932 97.6799 46.4566C97.4845 48.0199 97.3184 49.425 97.1816 50.6717C97.0644 51.8987 97.0057 52.8387 97.0057 53.4917C97.0057 53.8875 97.0351 54.2833 97.0937 54.6791C97.1523 55.0749 97.3966 55.2728 97.8265 55.2728C98.1587 55.2728 98.5202 55.0551 98.911 54.6197C99.3214 54.1844 99.6731 53.4423 99.9662 52.3934L100.787 52.5715C100.728 52.9277 100.601 53.3433 100.406 53.8183C100.23 54.2734 99.9858 54.7286 99.6731 55.1838C99.3604 55.6389 98.9794 56.0149 98.53 56.3118C98.0805 56.6086 97.5627 56.757 96.9764 56.757C96.1948 56.757 95.6379 56.5097 95.3057 56.0149C94.9735 55.5202 94.8074 54.877 94.8074 54.0854C94.8074 53.5115 94.8562 52.8882 94.9539 52.2153C95.0712 51.5425 95.1982 50.8399 95.335 50.1077H95.2471C94.7781 51.5722 94.2895 52.7496 93.7815 53.6402C93.293 54.5109 92.7946 55.1739 92.2866 55.629C91.7981 56.0842 91.3193 56.381 90.8503 56.5195C90.3813 56.6779 89.9417 56.757 89.5313 56.757C88.4761 56.757 87.587 56.3612 86.8639 55.5696C86.1605 54.7781 85.8087 53.4522 85.8087 51.5919C85.8087 50.2067 85.9846 48.8907 86.3363 47.6439C86.6881 46.3972 87.2157 45.2989 87.9192 44.349C88.6422 43.3793 89.5411 42.6273 90.6158 42.0929C91.6906 41.5388 92.9412 41.2618 94.3677 41.2618ZM93.459 42.3304C92.5797 42.3304 91.8078 42.5778 91.1434 43.0725C90.4986 43.5673 89.9612 44.2401 89.5313 45.0911C89.1014 45.9222 88.779 46.8622 88.564 47.9111C88.3686 48.9401 88.2709 49.9989 88.2709 51.0873C88.2709 52.3538 88.4077 53.4027 88.6813 54.2338C88.9548 55.0452 89.4531 55.4509 90.1761 55.4509C90.7038 55.4509 91.2314 55.1838 91.759 54.6494C92.3061 54.1151 92.8142 53.4027 93.2832 52.5122C93.7522 51.6018 94.1723 50.5926 94.5436 49.4844C94.9148 48.3563 95.208 47.2086 95.4229 46.041C95.6379 44.8734 95.7454 43.7553 95.7454 42.6866C95.1591 42.4492 94.397 42.3304 93.459 42.3304Z"
        fill="#1C2661" />
    <path
        d="M107.143 37.4028L106.616 41.5883H111.276L111.188 42.7163L106.498 42.7757C106.381 43.8839 106.254 45.0317 106.117 46.2191C106 47.4064 105.893 48.5542 105.795 49.6625C105.697 50.7707 105.648 51.7701 105.648 52.6606C105.648 53.0366 105.668 53.4324 105.707 53.8479C105.766 54.2437 105.893 54.5802 106.088 54.8572C106.283 55.1145 106.596 55.2431 107.026 55.2431C107.221 55.2431 107.456 55.2035 107.729 55.1244C108.023 55.0452 108.345 54.8572 108.697 54.5604C109.048 54.2635 109.41 53.7985 109.781 53.1652L110.543 53.6698C109.977 54.6791 109.361 55.4509 108.697 55.9852C108.052 56.4998 107.26 56.757 106.322 56.757C105.189 56.757 104.398 56.4107 103.948 55.7181C103.499 55.0056 103.274 54.1844 103.274 53.2543C103.274 52.146 103.333 50.6618 103.45 48.8016C103.587 46.9414 103.782 44.9426 104.036 42.8054L101.427 42.8351L101.515 41.5883C102.864 41.5883 103.86 41.2222 104.505 40.49C105.15 39.7578 105.658 38.7287 106.029 37.4028H107.143Z"
        fill="#1C2661" />
    <path
        d="M119.725 41.2618C120.429 41.2618 121.093 41.3706 121.719 41.5883C122.344 41.806 122.852 42.1622 123.243 42.657C123.634 43.1517 123.829 43.8245 123.829 44.6755C123.829 45.4869 123.555 46.1894 123.008 46.7831C122.461 47.3768 121.748 47.8715 120.869 48.2673C119.989 48.6433 119.051 48.95 118.055 49.1875C117.058 49.425 116.101 49.5932 115.182 49.6921C115.182 53.4126 116.296 55.2728 118.524 55.2728C119.383 55.2728 120.233 54.9859 121.074 54.412C121.934 53.8381 122.686 52.9277 123.331 51.681L124.298 52.245C123.477 53.8084 122.559 54.9562 121.543 55.6884C120.527 56.4008 119.354 56.757 118.025 56.757C116.169 56.757 114.801 56.1732 113.922 55.0056C113.042 53.8183 112.603 52.2648 112.603 50.3452C112.603 49.1974 112.749 48.0793 113.042 46.9909C113.336 45.9024 113.775 44.9328 114.361 44.0818C114.948 43.2111 115.69 42.5283 116.589 42.0336C117.488 41.5191 118.533 41.2618 119.725 41.2618ZM119.315 42.2711C118.416 42.2711 117.674 42.5778 117.087 43.1913C116.521 43.8047 116.081 44.5963 115.768 45.566C115.475 46.5357 115.29 47.5549 115.211 48.6235C116.247 48.485 117.234 48.2376 118.172 47.8814C119.11 47.5252 119.882 47.07 120.488 46.5159C121.093 45.942 121.396 45.2791 121.396 44.5271C121.396 43.8938 121.22 43.3595 120.869 42.9241C120.536 42.4887 120.019 42.2711 119.315 42.2711Z"
        fill="#1C2661" />
</svg>