<svg width="16" height="16" viewBox="0 0 16 16" fill="none" xmlns="http://www.w3.org/2000/svg">
<path fill-rule="evenodd" clip-rule="evenodd" d="M5.5625 1.5H10.4375C12.6808 1.5 14.5 3.31919 14.5 5.5625V10.4375C14.5 12.6808 12.6808 14.5 10.4375 14.5H5.5625C3.31919 14.5 1.5 12.6808 1.5 10.4375V5.5625C1.5 3.31919 3.31919 1.5 5.5625 1.5ZM10.4375 13.2812C12.0057 13.2812 13.2813 12.0056 13.2813 10.4375V5.5625C13.2813 3.99437 12.0057 2.71875 10.4375 2.71875H5.56254C3.99441 2.71875 2.71879 3.99437 2.71879 5.5625V10.4375C2.71879 12.0056 3.99441 13.2812 5.56254 13.2812H10.4375Z" fill="#1C2661"/>
<path fill-rule="evenodd" clip-rule="evenodd" d="M4.75 7.99951C4.75 6.2047 6.20519 4.74951 8 4.74951C9.79481 4.74951 11.25 6.2047 11.25 7.99951C11.25 9.79432 9.79481 11.2495 8 11.2495C6.20519 11.2495 4.75 9.79432 4.75 7.99951ZM5.9688 7.99944C5.9688 9.11906 6.88043 10.0307 8.00005 10.0307C9.11968 10.0307 10.0313 9.11906 10.0313 7.99944C10.0313 6.879 9.11968 5.96819 8.00005 5.96819C6.88043 5.96819 5.9688 6.879 5.9688 7.99944Z" fill="#1C2661"/>
<circle cx="11.4936" cy="4.5063" r="0.433063" fill="#1C2661"/>
</svg>
