<svg width="86" height="87" viewBox="0 0 86 87" fill="none" xmlns="http://www.w3.org/2000/svg">
<rect y="0.542358" width="86" height="86" rx="43" fill="#4FACF6"/>
<path d="M42.9999 29.129C41.5518 29.129 40.1362 29.5584 38.9322 30.363C37.7282 31.1675 36.7897 32.311 36.2356 33.6488C35.6814 34.9867 35.5364 36.4588 35.8189 37.8791C36.1014 39.2993 36.7987 40.6039 37.8227 41.6279C38.8466 42.6518 40.1512 43.3492 41.5715 43.6317C42.9918 43.9142 44.4639 43.7692 45.8018 43.215C47.1396 42.6609 48.2831 41.7224 49.0876 40.5184C49.8921 39.3144 50.3216 37.8988 50.3216 36.4507C50.3216 34.5089 49.5502 32.6466 48.1771 31.2735C46.804 29.9004 44.9417 29.129 42.9999 29.129ZM42.9999 41.2168C42.0572 41.2168 41.1358 40.9373 40.352 40.4136C39.5682 39.8899 38.9573 39.1455 38.5966 38.2746C38.2358 37.4037 38.1415 36.4454 38.3254 35.5209C38.5093 34.5963 38.9632 33.7471 39.6297 33.0805C40.2963 32.414 41.1455 31.9601 42.0701 31.7762C42.9946 31.5923 43.9529 31.6866 44.8238 32.0474C45.6947 32.4081 46.4391 33.019 46.9628 33.8028C47.4865 34.5866 47.766 35.508 47.766 36.4507C47.7626 37.7125 47.259 38.9215 46.3655 39.8126C45.4721 40.7036 44.2617 41.204 42.9999 41.204V41.2168Z" fill="white"/>
<path d="M43 23.0979C39.02 23.1012 35.203 24.6794 32.3827 27.4877C29.5624 30.296 27.968 34.1063 27.9478 38.0862C27.9478 44.0535 31.2955 49.0496 33.7489 52.6912L34.1961 53.3557C36.637 56.8934 39.2555 60.3051 42.0416 63.5779L43.0128 64.7151L43.9839 63.5779C46.7696 60.3049 49.3881 56.8931 51.8294 53.3557L52.2766 52.6785C54.7172 49.0368 58.065 44.0535 58.065 38.0862C58.0447 34.104 56.4486 30.2919 53.6255 27.4832C50.8025 24.6745 46.9822 23.0978 43 23.0979ZM50.1428 51.209L49.6828 51.8862C47.485 55.1829 44.5716 58.8757 43 60.7029C41.4922 58.8757 38.515 55.1829 36.3172 51.8862L35.87 51.209C33.6083 47.8357 30.5033 43.2229 30.5033 38.0351C30.5033 36.394 30.8265 34.769 31.4546 33.2529C32.0826 31.7367 33.0031 30.3591 34.1635 29.1986C35.3239 28.0382 36.7015 27.1177 38.2177 26.4897C39.7339 25.8617 41.3589 25.5385 43 25.5385C44.6411 25.5385 46.2661 25.8617 47.7822 26.4897C49.2984 27.1177 50.676 28.0382 51.8365 29.1986C52.9969 30.3591 53.9174 31.7367 54.5454 33.2529C55.1734 34.769 55.4966 36.394 55.4966 38.0351C55.4966 43.274 52.4044 47.8868 50.1428 51.209Z" fill="white"/>
</svg>
