<svg width="86" height="87" viewBox="0 0 86 87" fill="none" xmlns="http://www.w3.org/2000/svg">
<rect y="0.542358" width="86" height="86" rx="43" fill="#F2B828"/>
<path d="M60.889 28.209H25.1112C24.4334 28.209 23.7834 28.4782 23.3042 28.9575C22.8249 29.4367 22.5557 30.0868 22.5557 30.7645V56.3201C22.5557 56.9979 22.8249 57.6479 23.3042 58.1271C23.7834 58.6064 24.4334 58.8756 25.1112 58.8756H60.889C61.5668 58.8756 62.2168 58.6064 62.696 58.1271C63.1753 57.6479 63.4445 56.9979 63.4445 56.3201V30.7645C63.4445 30.0868 63.1753 29.4367 62.696 28.9575C62.2168 28.4782 61.5668 28.209 60.889 28.209ZM58.9212 56.3201H27.2323L36.1768 47.069L34.3368 45.2929L25.1112 54.8379V32.7068L40.994 48.5129C41.4728 48.9888 42.1205 49.256 42.7957 49.256C43.4708 49.256 44.1185 48.9888 44.5973 48.5129L60.889 32.3107V54.6718L51.4846 45.2673L49.6829 47.069L58.9212 56.3201ZM26.7851 30.7645H58.819L42.7957 46.6984L26.7851 30.7645Z" fill="white"/>
</svg>
