<svg width="86" height="87" viewBox="0 0 86 87" fill="none" xmlns="http://www.w3.org/2000/svg">
<rect y="0.542358" width="86" height="86" rx="43" fill="#8362C2"/>
<path d="M55.4327 65.8268C55.003 65.8256 54.5746 65.7785 54.1549 65.6862C46.1645 64.0333 38.8032 60.1578 32.9183 54.5057C27.1589 48.8412 23.1645 41.629 21.4183 33.7418C21.2124 32.7588 21.2629 31.7394 21.565 30.7816C21.8671 29.8238 22.4106 28.9599 23.1433 28.2729L28.2544 23.3535C28.5154 23.1066 28.8256 22.9175 29.1647 22.7986C29.5037 22.6797 29.8641 22.6337 30.2221 22.6635C30.5934 22.7022 30.9517 22.8218 31.2718 23.0138C31.5919 23.2059 31.866 23.4658 32.0749 23.7751L38.4638 33.2179C38.7034 33.5843 38.819 34.0179 38.7937 34.455C38.7684 34.892 38.6035 35.3094 38.3233 35.6457L35.116 39.479C36.3934 42.306 38.2023 44.8611 40.4444 47.0051C42.6719 49.2269 45.3048 51.001 48.2005 52.2312L52.1744 49.0751C52.5081 48.8113 52.9143 48.6554 53.3388 48.628C53.7633 48.6006 54.1861 48.7031 54.551 48.9218L64.1983 55.1573C64.5293 55.355 64.8114 55.625 65.0233 55.9472C65.2351 56.2693 65.3714 56.6352 65.4218 57.0175C65.4722 57.3998 65.4354 57.7885 65.3143 58.1546C65.1931 58.5206 64.9907 58.8545 64.7221 59.1312L59.7388 64.0635C59.1727 64.6267 58.5009 65.0725 57.7619 65.3752C57.0228 65.6778 56.2313 65.8313 55.4327 65.8268ZM30.0177 25.1935L24.9066 30.1129C24.4944 30.4969 24.1894 30.9816 24.0213 31.5193C23.8533 32.057 23.8281 32.6292 23.9483 33.1796C25.572 40.5806 29.3043 47.3531 34.6944 52.6785C40.2325 57.996 47.1599 61.6413 54.6788 63.1946C55.2479 63.3136 55.8377 63.2895 56.3952 63.1244C56.9527 62.9594 57.4606 62.6586 57.8733 62.249L62.8566 57.3168L53.5416 51.2985L49.2738 54.6973C49.1104 54.8267 48.9179 54.9141 48.713 54.9519C48.5081 54.9898 48.2971 54.977 48.0983 54.9146C44.5546 53.6089 41.3432 51.5364 38.6938 48.8451C35.9534 46.286 33.8263 43.1411 32.471 39.6451C32.4137 39.4335 32.4118 39.2106 32.4655 38.998C32.5192 38.7855 32.6267 38.5903 32.7777 38.4312L36.2277 34.304L30.0177 25.1935Z" fill="white"/>
</svg>
