<svg width="16" height="16" viewBox="0 0 16 16" fill="none" xmlns="http://www.w3.org/2000/svg">
<path d="M14.6667 3.86598C14.1709 4.08348 13.6425 4.22764 13.0917 4.29764C13.6584 3.95931 14.0909 3.42765 14.2942 2.78683C13.7659 3.10182 13.1825 3.32432 12.5609 3.44849C12.0592 2.91433 11.3442 2.5835 10.5642 2.5835C9.05091 2.5835 7.83259 3.81182 7.83259 5.31763C7.83259 5.5343 7.85092 5.74263 7.89592 5.94096C5.62345 5.83013 3.61264 4.74097 2.26182 3.08182C2.02599 3.49099 1.88766 3.95931 1.88766 4.46348C1.88766 5.41013 2.37515 6.24929 3.10181 6.73512C2.66265 6.72678 2.23182 6.59928 1.86682 6.39845C1.86682 6.40679 1.86682 6.41762 1.86682 6.42845C1.86682 7.75677 2.81431 8.86009 4.0568 9.11426C3.8343 9.17509 3.5918 9.20426 3.34014 9.20426C3.16514 9.20426 2.98848 9.19426 2.82265 9.15759C3.17681 10.2401 4.1818 11.0359 5.37678 11.0617C4.44679 11.7892 3.26597 12.2276 1.98766 12.2276C1.76349 12.2276 1.54849 12.2176 1.3335 12.1901C2.54432 12.9709 3.9793 13.4167 5.52678 13.4167C10.5567 13.4167 13.3067 9.25009 13.3067 5.63846C13.3067 5.51763 13.3025 5.40096 13.2967 5.28513C13.8392 4.90014 14.295 4.41931 14.6667 3.86598Z" fill="#1C2661"/>
</svg>
